<?xml version="1.0" standalone="no"?> <!DOCTYPE svg PUBLIC "-//W3C//DTD SVG 1.0//EN" "http://www.w3.org/TR/2001/REC-SVG-20010904/DTD/svg10.dtd" > <svg xmlns="http://www.w3.org/2000/svg" width="100%" height="100%">
<defs >
<font id="helveticaroundedltstd-bdcn" horiz-adv-x="374" ><font-face
    font-family="HelveticaRounded LT Std BdCn"
    units-per-em="1000"
    panose-1="2 15 7 6 3 7 3 4 2 4"
    ascent="733"
    descent="-267"
    alphabetic="0" />
<missing-glyph horiz-adv-x="500" d="M0 0V700H500V0H0ZM250 395L420 650H80L250 395ZM280 350L450 95V605L280 350ZM80 50H420L250 305L80 50ZM50 605V95L220 350L50 605Z" />
<glyph unicode=" " glyph-name="space" horiz-adv-x="240" />
<glyph unicode="!" glyph-name="exclam" horiz-adv-x="278" d="M72 509V663Q72 733 139 733T206 663V509Q206 480 202 439L183 227Q181 198 172 186T139 174T106 186T95 227L76 439Q72 480 72 509ZM63 32T63 63T85 116T139 139T192 117T215 63T193 10T139 -13T86 9Z" />
<glyph unicode="&quot;" glyph-name="quotedbl" horiz-adv-x="426" d="M254 523V674Q254 701 270 719T311 737T351 719T368 674V523Q368 496 352 478T311 460T271 478T254 523ZM58 523V674Q58 701 74 719T115 737T155 719T172 674V523Q172 496 156 478T115 460T75
478T58 523Z" />
<glyph unicode="#" glyph-name="numbersign" horiz-adv-x="480" d="M262 197H176L155 40Q150 -13 101 -13Q84 -13 72 -1T60 29Q60 34 64 62L83 197H44Q22 197 11 211T0 245T11 279T44 293H95L111 414H72Q50 414 39 428T28 462T39 496T72 510H123L143 667Q150 720
197 720Q215 720 227 708T239 678Q239 673 235 645L217 510H303L324 667Q329 720 378 720Q395 720 407 708T419 678Q419 673 415 645L396 510H435Q457 510 468 496T480 462T469 429T435 414H384L368 293H407Q429 293 440 279T451 245T440 211T407 197H356L336 40Q329
-13 282 -13Q264 -13 252 -1T240 29Q240 34 244 62L262 197ZM275 293L290 414H204L189 293H275Z" />
<glyph unicode="$" glyph-name="dollar" horiz-adv-x="480" d="M215 83V301L151 342Q41 412 41 532Q41 613 87 665T215 720V746Q215 773 238 773T261 746V720Q331 720 379 678T427 569Q427 544 412 528T372 511Q343 511 331 525T313 570Q307 597 293 610T261 624V427L319
393Q381 357 413 311T446 198Q446 102 398 47T261 -13V-90Q261 -116 238 -116T215 -90V-13Q137 -13 86 38T34 165Q34 194 48 213T89 233Q141 233 148 167Q156 89 215 83ZM215 452V624Q155 614 155 545Q155 518 167 500T215 452ZM261 277V83Q289 87 306 114T324
175Q324 242 261 277Z" />
<glyph unicode="%" glyph-name="percent" horiz-adv-x="870" d="M44 448T44 538T78 674T198 720T317 674T352 538T318 402T198 356T79 402ZM145 560V527Q145 432 198 432T251 527V560Q251 644 198 644T145 560ZM518 79T518 169T552 305T672 351T791 305T826 169T792
33T672 -13T553 33ZM619 191V158Q619 63 672 63T725 158V191Q725 275 672 275T619 191ZM247 22L550 719Q562 745 593 745Q610 745 619 736T628 714Q628 698 622 685L319 -12Q307 -38 276 -38Q259 -38 250 -29T241 -7Q241 8 247 22Z" />
<glyph unicode="&amp;" glyph-name="ampersand" horiz-adv-x="630" d="M351 403L439 252Q450 281 461 347Q465 375 477 386T514 398Q567 398 567 336Q567 299 548 241T505 141L533 95Q553 62 553 41Q553 15 535 -1T489 -17Q459 -17 437 17L419 43Q360 -13 267
-13Q172 -13 118 45T63 197Q63 336 200 425Q143 516 143 570Q143 639 189 679T307 720Q380 720 419 681T459 584Q459 532 431 485T351 403ZM368 133L255 329Q224 306 205 274T185 212Q185 162 214 128T283 93Q331 93 368 133ZM270 540L297 494L310 506Q334 527
343 544T353 585Q353 606 340 620T306 634Q285 634 271 622T257 590Q257 562 270 540Z" />
<glyph unicode="&apos;" glyph-name="quotesingle" horiz-adv-x="222" d="M54 523V674Q54 701 70 719T111 737T151 719T168 674V523Q168 496 152 478T111 460T71 478T54 523Z" />
<glyph unicode="(" glyph-name="parenleft" horiz-adv-x="296" d="M51 176T51 277T71 471T121 624T181 719T233 755Q276 755 276 711Q276 702 261 668T228 589T194 460T179 277T194 95T227 -34T261 -113T276 -157Q276 -201 233 -201Q212 -201 182 -166T122 -71T72 82Z" />
<glyph unicode=")" glyph-name="parenright" horiz-adv-x="296" d="M245 378T245 277T225 83T175 -70T115 -165T63 -201Q20 -201 20 -157Q20 -148 35 -114T68 -35T102 94T117 277T102 459T69 588T35 667T20 711Q20 755 63 755Q84 755 114 720T174 625T224 472Z" />
<glyph unicode="*" glyph-name="asterisk" horiz-adv-x="370" d="M221 618L289 640Q330 655 340 620Q351 587 310 573L242 551L284 493Q310 458 281 438Q253 417 227 452L185 510L143 452Q117 417 89 438Q60 458 86 493L128 551L60 574Q18 587 30 620Q40 654 82
640L150 618V690Q150 733 185 733T220 690V618H221Z" />
<glyph unicode="+" glyph-name="plus" horiz-adv-x="600" d="M247 336V496Q247 527 262 546T300 566T338 547T353 496V336H513Q544 336 563 321T583 283T564 246T513 230H353V70Q353 39 338 20T300 0T262 19T247 70V230H87Q56 230 37 245T17 283T36 320T87 336H247Z" />
<glyph unicode="," glyph-name="comma" horiz-adv-x="240" d="M40 60Q40 93 62 116T120 139Q158 139 179 110T200 43Q200 -32 157 -85T67 -138Q56 -138 48 -130T40 -113Q40 -94 66 -85Q87 -78 108 -57T136 -12Q127 -13 115 -13Q78 -13 59 10T40 60Z" />
<glyph unicode="-" glyph-name="hyphen" horiz-adv-x="333" d="M232 226H101Q71 226 55 242T39 283T55 323T101 340H232Q262 340 278 324T294 283T278 243T232 226Z" />
<glyph unicode="." glyph-name="period" horiz-adv-x="240" d="M44 32T44 63T66 116T120 139T174 117T196 63T174 10T120 -13T66 9Z" />
<glyph unicode="/" glyph-name="slash" horiz-adv-x="333" d="M3 54L232 693Q239 712 254 724T288 737Q308 737 322 727T336 701Q336 681 330 666L101 27Q84 -17 45 -17Q25 -17 11 -7T-3 19Q-3 39 3 54Z" />
<glyph unicode="0" glyph-name="zero" horiz-adv-x="480" d="M173 493V214Q173 142 187 113T240 83T293 112T307 214V493Q307 565 293 594T240 624T187 595T173 493ZM39 232V474Q39 514 42 544T56 610T89 667T148 705T240 720T331 705T391 668T423 610T438 545T441
474V232Q441 192 438 162T424 97T391 40T332 2T240 -13T149 2T89 39T57 97T42 162T39 232Z" />
<glyph unicode="1" glyph-name="one" horiz-adv-x="333" d="M136 505H43Q-14 505 -14 546Q-14 584 28 591Q84 600 113 619T162 675Q180 709 190 717T227 726Q245 726 257 713T270 672V56Q270 25 251 6T203 -13T156 6T136 56V505Z" />
<glyph unicode="2" glyph-name="two" horiz-adv-x="480" d="M372 0H95Q36 0 36 57Q36 108 66 178T170 322L217 369Q268 420 286 454T304 529Q304 571 287 595T237 619Q201 619 186 595T166 521Q164 493 147 479T105 464Q44 464 44 538Q44 620 94 670T232 720Q332
720 385 671T438 527Q438 422 350 334L267 251Q192 176 175 114H372Q408 114 426 101T444 57T426 13T372 0Z" />
<glyph unicode="3" glyph-name="three" horiz-adv-x="480" d="M33 170Q33 207 48 228T94 250Q157 250 161 175Q166 83 235 83Q307 83 307 207Q307 280 288 304T224 333Q184 337 170 347T156 380T168 411T218 428Q261 436 277 459T293 540Q293 624 230 624Q177
624 166 557Q157 496 101 496Q74 496 59 513T44 557Q44 630 90 675T228 720Q331 720 379 670T427 535Q427 416 345 387Q399 367 420 325T441 208Q441 -13 233 -13Q173 -13 131 6T69 57T41 115T33 170Z" />
<glyph unicode="4" glyph-name="four" horiz-adv-x="480" d="M255 250V539H253L120 250H255ZM255 60V144H85Q12 144 12 199Q12 227 32 270L227 677Q242 707 258 716T309 726T360 709T377 663V250H400Q422 250 438 237T455 197T439 157T400 144H377V60Q377 -13
316 -13T255 60Z" />
<glyph unicode="5" glyph-name="five" horiz-adv-x="480" d="M168 593L159 448Q197 486 266 486Q348 486 394 433T441 250Q441 189 433 145T403 63T339 6T235 -13Q174 -13 132 6T72 57T46 113T39 164Q39 198 54 220T101 242Q163 242 167 177Q172 83 235 83Q277
83 292 118T307 231Q307 318 289 354T227 390Q206 390 192 379T170 355T147 330T105 319Q77 319 63 336T49 378Q49 383 51 411L64 657Q66 707 108 707H351Q387 707 405 694T423 650T405 606T351 593H168Z" />
<glyph unicode="6" glyph-name="six" horiz-adv-x="480" d="M36 317V393Q36 558 80 639T244 720Q330 720 375 686T421 601Q421 575 405 559T362 543Q340 543 329 551T303 585Q288 610 278 617T247 624Q170 624 170 482V441Q211 481 275 481Q444 481 444 255Q444
197 436 153T406 69T344 8T243 -13Q188 -13 150 3T89 46T55 117T40 207T36 317ZM170 233Q170 155 184 119T240 83T295 119T310 233Q310 310 296 345T240 380T185 345T170 233Z" />
<glyph unicode="7" glyph-name="seven" horiz-adv-x="444" d="M302 587H73Q43 587 27 606T10 646Q10 668 26 687T73 707H380Q413 707 428 697T444 657Q444 639 405 564Q355 468 311 320T256 56Q249 -13 183 -13Q122 -13 122 56Q122 128 178 298T302 587Z" />
<glyph unicode="8" glyph-name="eight" horiz-adv-x="480" d="M169 237V184Q169 83 240 83T311 184V237Q311 338 240 338T169 237ZM175 624T175 529T240 434T305 529T240 624ZM35 200Q35 343 126 385Q47 425 47 529Q47 620 95 670T240 720T384 670T433 529Q433
425 354 385Q445 343 445 200Q445 157 437 123T409 57T346 6T240 -13T135 5T72 56T43 123T35 200Z" />
<glyph unicode="9" glyph-name="nine" horiz-adv-x="480" d="M444 390V314Q444 149 400 68T236 -13Q150 -13 105 21T59 106Q59 132 75 148T118 164Q140 164 151 156T177 122Q192 97 202 90T233 83Q310 83 310 225V266Q269 226 205 226Q36 226 36 452Q36 510 44
554T74 638T136 699T237 720Q292 720 330 704T391 661T425 590T440 500T444 390ZM170 474Q170 397 184 362T240 327T295 362T310 474Q310 552 296 588T240 624T185 588T170 474Z" />
<glyph unicode=":" glyph-name="colon" horiz-adv-x="240" d="M44 434T44 465T66 518T120 541T174 519T196 465T174 412T120 389T66 411ZM44 32T44 63T66 116T120 139T174 117T196 63T174 10T120 -13T66 9Z" />
<glyph unicode=";" glyph-name="semicolon" horiz-adv-x="240" d="M40 60Q40 93 62 116T120 139Q158 139 179 110T200 43Q200 -32 157 -85T67 -138Q56 -138 48 -130T40 -113Q40 -94 66 -85Q87 -78 108 -57T136 -12Q127 -13 115 -13Q78 -13 59 10T40 60ZM44 434T44
465T66 518T120 541T174 519T196 465T174 412T120 389T66 411Z" />
<glyph unicode="&lt;" glyph-name="less" horiz-adv-x="600" d="M467 39L60 226Q23 244 23 283T60 340L467 527Q496 541 522 541Q545 541 561 529T577 503Q577 464 530 444L163 283L530 122Q577 102 577 63Q577 50 561 38T522 25Q496 25 467 39Z" />
<glyph unicode="=" glyph-name="equal" horiz-adv-x="600" d="M513 348H87Q56 348 37 363T17 401T36 438T87 454H513Q544 454 563 439T583 401T564 364T513 348ZM513 112H87Q56 112 37 127T17 165T36 202T87 218H513Q544 218 563 203T583 165T564 128T513 112Z" />
<glyph unicode="&gt;" glyph-name="greater" horiz-adv-x="600" d="M70 122L437 283L70 444Q23 464 23 503Q23 516 39 528T78 541Q104 541 133 527L540 340Q577 322 577 283T540 226L133 39Q104 25 78 25Q55 25 39 37T23 63Q23 102 70 122Z" />
<glyph unicode="?" glyph-name="question" horiz-adv-x="481" d="M201 385L237 426Q294 491 294 555Q294 589 278 610T232 632Q209 632 193 617T173 577Q169 540 155 526T111 511Q84 511 68 527T51 572Q51 643 98 688T227 733Q422 733 422 546Q422 498 404 459T347
377L318 345Q284 308 273 286T257 226Q255 203 241 189T200 174Q175 174 159 191T143 237Q143 318 201 385ZM124 32T124 63T146 116T200 139T254 117T276 63T254 10T200 -13T146 9Z" />
<glyph unicode="@" glyph-name="at" horiz-adv-x="800" d="M310 337Q310 253 379 253Q430 253 459 284T489 361Q489 397 469 419T411 441Q368 441 339 410T310 337ZM614 475L580 309Q575 279 575 264Q575 245 595 245Q630 245 658 284T686 399Q686 518 612 582T414
646Q299 646 218 563T137 359Q137 227 217 151T423 74Q491 74 538 90T608 121T642 137Q659 137 670 127T682 101Q682 82 648 55T551 6T423 -17Q256 -17 140 89T23 359Q23 520 138 628T417 737Q569 737 673 652T777 427Q777 363 757 312T708 230T642 181T578 154T528
147Q467 147 458 190H456Q416 147 344 147Q282 147 239 195T196 334Q196 419 257 487T396 555Q440 555 468 540T522 492L526 510Q534 547 572 547Q592 547 605 536T618 503Q618 494 614 475Z" />
<glyph unicode="A" glyph-name="A" horiz-adv-x="519" d="M338 180H173L146 50Q139 16 124 2T76 -13Q46 -13 30 2T13 45Q13 68 21 100L149 639Q162 695 183 714T259 733Q310 733 333 714T369 639L496 104Q506 60 506 49Q506 18 487 3T440 -13Q403 -13 386 5T359
74L338 180ZM195 286H317L258 585H256L195 286Z" />
<glyph unicode="B" glyph-name="B" horiz-adv-x="519" d="M56 72V648Q56 720 128 720H308Q467 720 467 534Q467 480 447 440T392 386Q487 351 487 223Q487 126 443 63T301 0H128Q56 0 56 72ZM190 326V101H270Q347 101 347 220Q347 326 268 326H190ZM190 619V427H251Q333
427 333 526Q333 619 261 619H190Z" />
<glyph unicode="C" glyph-name="C" horiz-adv-x="500" d="M40 296V410Q40 595 93 666T271 737Q367 737 420 686T473 557Q473 477 405 477Q367 477 353 494T333 558Q323 631 271 631Q237 631 220 616T191 548T180 389V349Q180 288 181 255T186 184T200 130T226
101T267 89Q293 89 313 110T334 162Q337 225 351 248T406 272Q474 272 474 193Q474 85 417 34T256 -17Q212 -17 178 -7T122 20T83 63T59 113T47 173T41 234T40 296Z" />
<glyph unicode="D" glyph-name="D" horiz-adv-x="537" d="M190 614V106H252Q308 106 332 155T357 337V395Q357 518 337 566T256 614H190ZM56 72V648Q56 720 128 720H303Q406 720 451 645T497 405V312Q497 0 297 0H128Q56 0 56 72Z" />
<glyph unicode="E" glyph-name="E" horiz-adv-x="500" d="M190 314V120H396Q466 120 466 60T396 0H128Q56 0 56 72V648Q56 720 128 720H389Q459 720 459 660T389 600H190V434H376Q446 434 446 374T376 314H190Z" />
<glyph unicode="F" glyph-name="F" horiz-adv-x="480" d="M190 314V56Q190 25 171 6T123 -13T76 6T56 56V648Q56 720 128 720H376Q446 720 446 660T376 600H190V434H376Q446 434 446 374T376 314H190Z" />
<glyph unicode="G" glyph-name="G" horiz-adv-x="519" d="M473 328V42Q473 -13 421 -13Q395 -13 382 3T368 46V65H366Q322 -13 232 -13Q186 -13 152 3T96 49T62 123T45 217T40 333V406Q40 588 92 662T269 737Q369 737 421 685T473 562Q473 482 406 482Q372 482
358 501T339 568Q333 631 263 631Q222 631 201 591T180 436V336Q180 199 197 146T269 93Q311 93 328 130T345 239V280H290Q263 280 250 296T236 337Q236 394 294 394H406Q442 394 457 378T473 328Z" />
<glyph unicode="H" glyph-name="H" horiz-adv-x="556" d="M366 328H190V56Q190 25 171 6T123 -13T76 6T56 56V664Q56 695 75 714T123 733T170 714T190 664V434H366V664Q366 695 385 714T433 733T480 714T500 664V56Q500 25 481 6T433 -13T386 6T366 56V328Z" />
<glyph unicode="I" glyph-name="I" horiz-adv-x="258" d="M62 56V664Q62 695 81 714T129 733T176 714T196 664V56Q196 25 177 6T129 -13T82 6T62 56Z" />
<glyph unicode="J" glyph-name="J" horiz-adv-x="444" d="M254 163V664Q254 695 273 714T321 733T368 714T388 664V160Q388 -17 202 -17Q24 -17 24 170Q24 212 42 233T90 254Q127 254 142 231T158 160Q158 89 204 89Q230 89 242 106T254 163Z" />
<glyph unicode="K" glyph-name="K" horiz-adv-x="519" d="M56 56V664Q56 695 75 714T123 733T170 714T190 664V400H192L352 691Q365 715 379 724T414 733Q442 733 461 717T481 675Q481 652 463 623L332 412L488 91Q502 63 502 45Q502 20 483 4T431 -13Q402 -13
388 -1T359 41L245 280L190 197V56Q190 25 171 6T123 -13T76 6T56 56Z" />
<glyph unicode="L" glyph-name="L" horiz-adv-x="481" d="M190 120H391Q461 120 461 60T391 0H128Q56 0 56 72V664Q56 695 75 714T123 733T170 714T190 664V120Z" />
<glyph unicode="M" glyph-name="M" horiz-adv-x="704" d="M58 56V634Q58 686 81 709T166 733Q218 733 245 710T285 626L351 280H353L419 626Q431 686 458 709T538 733Q600 733 623 710T646 634V56Q646 25 627 6T579 -13T532 6T512 56V573H510L400 31Q395 10 386
-1T352 -13T319 -2T304 31L194 573H192V56Q192 25 173 6T125 -13T78 6T58 56Z" />
<glyph unicode="N" glyph-name="N" horiz-adv-x="574" d="M56 56V664Q56 696 75 714T130 733Q164 733 185 720T223 665L382 271H384V664Q384 695 403 714T451 733T498 714T518 664V62Q518 27 499 7T451 -13Q409 -13 388 0T351 55L192 455H190V56Q190 25 171 6T123
-13T76 6T56 56Z" />
<glyph unicode="O" glyph-name="O" horiz-adv-x="520" d="M40 290V442Q40 518 52 573T84 660T134 709T193 732T260 737T326 732T385 709T435 660T467 574T480 442V290Q480 211 469 154T439 65T391 13T331 -11T260 -17T189 -12T130 13T82 64T52 154T40 290ZM180
442V290Q180 204 189 160T214 102T260 89T305 102T330 159T340 290V442Q340 553 321 592T260 631T199 592T180 442Z" />
<glyph unicode="P" glyph-name="P" horiz-adv-x="500" d="M56 56V648Q56 720 128 720H295Q477 720 477 517Q477 426 434 366T306 306H190V56Q190 25 171 6T123 -13T76 6T56 56ZM190 619V407H250Q337 407 337 511Q337 619 257 619H190Z" />
<glyph unicode="Q" glyph-name="Q" horiz-adv-x="520" d="M40 290V442Q40 518 52 573T84 660T134 709T193 732T260 737T326 732T385 709T435 660T467 574T480 442V290Q480 143 441 71L479 35Q508 7 508 -17Q508 -34 494 -47T464 -60Q439 -60 403 -24L375 5Q335
-17 260 -17Q219 -17 189 -12T130 13T82 64T52 154T40 290ZM180 442V290Q180 204 189 160T214 102T260 89Q275 89 287 93L281 99Q263 117 263 137T277 169T310 182Q322 182 333 171Q340 212 340 290V442Q340 553 321 592T260 631T199 592T180 442Z" />
<glyph unicode="R" glyph-name="R" horiz-adv-x="519" d="M56 56V648Q56 720 128 720H312Q397 720 435 670T474 535Q474 465 454 428T387 372Q437 354 453 321T470 219V142Q470 122 474 85T479 30T463 0T415 -13Q336 -13 333 55L327 239Q324 314 248 314H190V56Q190
25 171 6T123 -13T76 6T56 56ZM190 619V415H242Q334 415 334 517Q334 572 315 595T248 619H190Z" />
<glyph unicode="S" glyph-name="S" horiz-adv-x="500" d="M261 280L132 371Q82 407 62 449T41 549Q41 640 101 688T253 737Q306 737 346 720T409 674T441 616T452 556Q452 523 434 506T386 488Q348 488 336 504T318 564Q310 631 246 631Q215 631 195 613T175 562Q175
532 188 509T247 455L346 390Q406 351 434 305T463 185Q463 90 406 37T235 -17Q185 -17 147 0T89 40T57 92T41 140T37 174Q37 265 105 265Q137 265 152 245T171 178Q173 138 193 114T251 89T309 112T329 173Q329 208 314 230T261 280Z" />
<glyph unicode="T" glyph-name="T" horiz-adv-x="520" d="M87 720H433Q503 720 503 660T433 600H327V56Q327 25 308 6T260 -13T213 6T193 56V600H87Q17 600 17 660T87 720Z" />
<glyph unicode="U" glyph-name="U" horiz-adv-x="537" d="M51 191V664Q51 695 70 714T118 733T165 714T185 664V204Q185 89 269 89Q308 89 330 117T352 204V664Q352 695 371 714T419 733T466 714T486 664V191Q486 94 431 39T269 -17T107 38T51 191Z" />
<glyph unicode="V" glyph-name="V" horiz-adv-x="500" d="M152 64L28 617Q19 659 19 668Q19 694 38 713T88 733Q119 733 134 720T156 674L258 142H260L348 662Q354 697 368 715T415 733Q446 733 463 717T481 672Q481 655 474 618L355 59Q346 15 324 1T251 -13Q202
-13 182 5T152 64Z" />
<glyph unicode="W" glyph-name="W" horiz-adv-x="759" d="M377 449L310 42Q304 9 286 -2T224 -13Q179 -13 161 1T136 46L27 622Q20 662 20 674Q20 700 39 716T92 733Q146 733 154 677L236 175H238L319 678Q324 707 337 720T380 733T423 720T441 678L531 175H533L605
673Q614 733 674 733Q739 733 739 671Q739 653 733 623L631 60Q622 12 605 0T536 -13T469 1T445 65L379 449H377Z" />
<glyph unicode="X" glyph-name="X" horiz-adv-x="500" d="M46 112L173 368L48 621Q32 654 32 673Q32 699 52 716T101 733Q127 733 144 720T178 668L249 490L335 684Q357 733 397 733Q429 733 448 717T467 674Q467 654 456 632L325 368L463 87Q475 61 475 48Q475
23 457 5T406 -13Q357 -13 336 37L246 242L153 29Q135 -13 91 -13Q62 -13 44 3T25 47Q25 69 46 112Z" />
<glyph unicode="Y" glyph-name="Y" horiz-adv-x="481" d="M174 56V296L28 625Q16 653 16 672Q16 702 35 717T82 733Q113 733 126 721T155 670L241 442L332 680Q344 711 360 722T401 733Q428 733 446 717T465 679Q465 660 455 638L308 303V56Q308 25 289 6T241
-13T194 6T174 56Z" />
<glyph unicode="Z" glyph-name="Z" horiz-adv-x="519" d="M317 600H110Q40 600 40 660T110 720H418Q489 720 489 661Q489 631 464 590L191 120H426Q496 120 496 60T426 0H93Q60 0 42 19T23 63Q23 86 45 124L317 600Z" />
<glyph unicode="[" glyph-name="bracketleft" horiz-adv-x="296" d="M69 -107V661Q69 733 146 733H229Q250 733 263 720T277 685T264 650T229 637H191V-83H229Q250 -83 263 -96T277 -131T264 -166T229 -179H146Q69 -179 69 -107Z" />
<glyph unicode="\" glyph-name="backslash" horiz-adv-x="333" d="M232 27L3 666Q-3 681 -3 701Q-3 717 11 727T45 737Q84 737 101 693L330 54Q336 39 336 19Q336 3 322 -7T288 -17Q269 -17 254 -5T232 27Z" />
<glyph unicode="]" glyph-name="bracketright" horiz-adv-x="296" d="M105 -83V637H67Q46 637 33 650T19 685T32 720T67 733H150Q227 733 227 661V-107Q227 -179 150 -179H67Q46 -179 33 -166T19 -131T32 -96T67 -83H105Z" />
<glyph unicode="^" glyph-name="asciicircum" horiz-adv-x="600" d="M80 397L234 677Q257 720 300 720T366 677L520 397Q533 372 533 353Q533 317 486 317Q443 317 421 357L300 580L179 357Q157 317 114 317Q67 317 67 353Q67 372 80 397Z" />
<glyph unicode="_" glyph-name="underscore" horiz-adv-x="500" d="M500 -125H0Q-12 -125 -12 -100T0 -75H500Q512 -75 512 -100T500 -125Z" />
<glyph unicode="`" glyph-name="grave" horiz-adv-x="240" d="M111 605L32 678Q7 701 7 724Q7 743 20 755T51 767Q74 767 90 751L174 666Q189 651 189 633Q189 614 178 602T147 589Q129 589 111 605Z" />
<glyph unicode="a" glyph-name="a" horiz-adv-x="444" d="M395 394V116Q395 96 398 69T402 35Q402 -13 341 -13Q277 -13 277 56L275 55Q244 -13 164 -13Q107 -13 73 23T38 132Q38 194 58 232T125 295L234 352Q273 372 273 409Q273 432 261 447T226 463Q196 463
183 448T166 399Q164 381 148 371T108 360T64 372T44 410Q44 478 92 516T214 554Q273 554 311 542T366 506T389 457T395 394ZM273 184V280L230 250Q190 222 178 202T166 147Q166 117 177 100T209 83Q238 83 255 111T273 184Z" />
<glyph unicode="b" glyph-name="b" horiz-adv-x="463" d="M181 322V220Q181 88 242 88Q273 88 283 121T293 230V301Q293 390 283 421T241 453Q181 453 181 322ZM59 60V660Q59 733 120 733T181 660V491H183Q217 554 291 554Q331 554 357 538T397 490T416 424T421
343V198Q421 152 416 118T398 52T358 4T291 -13Q215 -13 183 50H181Q181 23 164 5T120 -13Q59 -13 59 60Z" />
<glyph unicode="c" glyph-name="c" horiz-adv-x="426" d="M42 221V320Q42 365 45 395T58 457T87 509T140 541T221 554Q261 554 292 543T341 516T370 479T386 441T390 406Q390 372 374 355T330 337Q298 337 283 353T268 406Q268 431 255 444T222 458Q204 458 193
449T178 421T172 382T170 331V211Q170 142 181 113T222 83Q267 83 268 138Q270 188 284 207T330 226Q357 226 373 207T390 155Q390 136 387 117T372 73T343 31T294 0T221 -13Q174 -13 140 -1T88 31T59 83T45 146T42 221Z" />
<glyph unicode="d" glyph-name="d" horiz-adv-x="463" d="M170 301V230Q170 155 180 122T221 88Q282 88 282 220V322Q282 453 222 453Q191 453 181 422T170 301ZM42 198V343Q42 389 47 423T65 489T105 537T172 554Q246 554 280 491H282V660Q282 733 343 733T404
660V60Q404 -13 343 -13Q316 -13 299 5T282 50H280Q248 -13 172 -13Q132 -13 106 3T66 51T47 117T42 198Z" />
<glyph unicode="e" glyph-name="e" horiz-adv-x="426" d="M166 340H272V385Q272 458 219 458T166 385V340ZM38 214V327Q38 385 44 421T68 491T125 539T224 554Q317 554 355 503T394 341Q394 297 381 276T326 254H166V199Q166 141 176 112T221 83Q240 83 253 100T268
139Q269 176 284 190T328 204Q390 204 390 144Q390 71 345 29T224 -13Q163 -13 125 2T69 50T44 119T38 214Z" />
<glyph unicode="f" glyph-name="f" horiz-adv-x="259" d="M67 60V450H54Q0 450 0 495Q0 541 54 541H67V613Q67 680 98 706T201 733Q262 733 262 679Q262 638 225 637Q203 636 196 626T189 591V541H208Q262 541 262 495Q262 450 208 450H189V60Q189 -13 128 -13T67 60Z" />
<glyph unicode="g" glyph-name="g" horiz-adv-x="463" d="M170 334V248Q170 159 180 128T222 96Q282 96 282 227V322Q282 395 265 424T224 453Q170 453 170 334ZM42 211V351Q42 554 172 554Q208 554 239 535T284 481H286Q286 554 346 554Q373 554 388 536T404
481V-30Q404 -121 359 -164T221 -207Q149 -207 105 -182T61 -106Q61 -81 78 -67T122 -52Q161 -52 176 -88Q190 -121 218 -121Q256 -121 269 -97T282 -14V61H280Q260 25 237 13T172 0Q132 0 106 16T66 64T47 130T42 211Z" />
<glyph unicode="h" glyph-name="h" horiz-adv-x="463" d="M54 60V660Q54 733 115 733T176 660V484H178Q192 518 223 536T292 554Q345 554 377 521T409 420V60Q409 -13 348 -13T287 60V391Q287 420 274 434T240 448Q176 448 176 351V60Q176 -13 115 -13T54 60Z" />
<glyph unicode="i" glyph-name="i" horiz-adv-x="240" d="M59 60V481Q59 554 120 554T181 481V60Q181 -13 120 -13T59 60ZM50 638T50 667T70 716T120 737T169 717T190 667T170 618T120 597T71 617Z" />
<glyph unicode="j" glyph-name="j" horiz-adv-x="240" d="M59 -64V481Q59 554 120 554T181 481V-91Q181 -207 57 -207Q0 -207 0 -155Q0 -131 10 -122T41 -107Q59 -103 59 -64ZM50 638T50 667T70 716T120 737T169 717T190 667T170 618T120 597T71 617Z" />
<glyph unicode="k" glyph-name="k" horiz-adv-x="444" d="M54 60V660Q54 733 115 733T176 660V337H178L284 503Q316 554 350 554Q372 554 391 540T410 502Q410 483 394 460L302 328L413 72Q420 57 420 37Q420 15 403 1T360 -13Q314 -13 293 34L215 218L176 168V60Q176
-13 115 -13T54 60Z" />
<glyph unicode="l" glyph-name="l" horiz-adv-x="240" d="M59 60V660Q59 733 120 733T181 660V60Q181 -13 120 -13T59 60Z" />
<glyph unicode="m" glyph-name="m" horiz-adv-x="686" d="M636 420V60Q636 -13 575 -13T514 60V391Q514 420 501 434T467 448Q404 448 404 351V60Q404 -13 343 -13T282 60V391Q282 420 269 434T235 448Q172 448 172 351V60Q172 -13 111 -13T50 60V481Q50 554 111
554T172 484H174Q188 518 219 536T288 554Q329 554 354 540T397 493Q424 526 452 540T519 554Q572 554 604 521T636 420Z" />
<glyph unicode="n" glyph-name="n" horiz-adv-x="463" d="M54 60V481Q54 554 115 554T176 484H178Q192 518 223 536T292 554Q345 554 377 521T409 420V60Q409 -13 348 -13T287 60V391Q287 420 274 434T240 448Q176 448 176 351V60Q176 -13 115 -13T54 60Z" />
<glyph unicode="o" glyph-name="o" horiz-adv-x="444" d="M166 336V207Q166 134 178 109T222 83T265 108T278 207V336Q278 406 265 432T222 458T180 432T166 336ZM38 197V344Q38 441 79 497T222 554T365 498T406 344V197Q406 100 365 44T222 -13T79 43T38 197Z" />
<glyph unicode="p" glyph-name="p" horiz-adv-x="463" d="M181 322V215Q181 83 242 83Q273 83 283 116T293 225V301Q293 390 283 421T241 453Q181 453 181 322ZM59 -134V481Q59 554 120 554T181 481H183Q198 515 228 534T291 554Q331 554 357 538T397 490T416
424T421 343V198Q421 152 416 118T398 52T358 4T291 -13Q216 -13 183 48H181V-134Q181 -207 120 -207T59 -134Z" />
<glyph unicode="q" glyph-name="q" horiz-adv-x="463" d="M282 215V322Q282 453 222 453Q191 453 181 422T170 301V225Q170 150 180 117T221 83Q282 83 282 215ZM404 481V-134Q404 -207 343 -207T282 -134V48H280Q247 -13 172 -13Q132 -13 106 3T66 51T47 117T42
198V343Q42 389 47 423T65 489T105 537T172 554Q205 554 235 535T280 481H282Q282 554 343 554T404 481Z" />
<glyph unicode="r" glyph-name="r" horiz-adv-x="333" d="M54 60V488Q54 554 111 554T168 488V437H170Q201 554 261 554Q287 554 304 534T321 475Q321 444 303 423T245 402Q215 402 196 383T176 328V60Q176 -13 115 -13T54 60Z" />
<glyph unicode="s" glyph-name="s" horiz-adv-x="407" d="M211 196L118 265Q68 302 52 332T36 408Q36 479 81 516T203 554Q249 554 283 540T334 504T359 461T367 421Q367 361 303 361Q256 361 253 408Q250 463 200 463Q181 463 170 452T158 421Q158 389 185 369L260
312Q324 264 350 231T376 146Q376 69 327 28T199 -13Q110 -13 71 32T31 136Q31 168 47 182T89 197Q122 197 136 180T153 122Q157 78 206 78Q254 78 254 128Q254 148 245 162T211 196Z" />
<glyph unicode="t" glyph-name="t" horiz-adv-x="259" d="M67 94V450H54Q0 450 0 495Q0 541 54 541H67V634Q67 707 128 707T189 634V541H217Q271 541 271 495Q271 450 217 450H189V132Q189 113 195 104T222 94Q267 92 267 51Q267 21 249 8T190 -6Q125 -6 96 22T67 94Z" />
<glyph unicode="u" glyph-name="u" horiz-adv-x="463" d="M54 121V481Q54 554 115 554T176 481V150Q176 93 223 93Q287 93 287 190V481Q287 554 348 554T409 481V60Q409 -13 348 -13T287 57H285Q271 23 240 5T171 -13Q118 -13 86 20T54 121Z" />
<glyph unicode="v" glyph-name="v" horiz-adv-x="426" d="M123 64L27 470Q22 490 22 498Q22 524 40 539T84 554Q115 554 131 539T153 490L217 135H219L280 490Q286 522 300 538T344 554T389 539T404 502Q404 482 398 460L300 42Q293 13 275 0T214 -13Q168 -13
151 4T123 64Z" />
<glyph unicode="w" glyph-name="w" horiz-adv-x="648" d="M112 69L30 456Q26 473 26 492Q26 521 43 537T88 554Q144 554 154 482L204 147H206L257 454Q266 509 279 531T323 554Q370 554 380 498L448 147H450L500 488Q510 554 565 554Q590 554 606 538T622 493Q622
480 618 461L536 63Q528 22 512 5T454 -13Q412 -13 394 8T367 78L324 303H322L276 54Q264 -13 195 -13Q158 -13 140 6T112 69Z" />
<glyph unicode="x" glyph-name="x" horiz-adv-x="407" d="M35 92L133 274L47 435Q27 474 27 497Q27 524 45 539T89 554Q115 554 127 544T153 505L206 394L263 513Q283 554 320 554Q348 554 365 538T382 497Q382 478 360 437L273 279L367 105Q388 65 388 44Q388
20 369 4T322 -13Q280 -13 263 26L202 160L135 25Q116 -13 84 -13Q56 -13 38 2T19 43Q19 63 35 92Z" />
<glyph unicode="y" glyph-name="y" horiz-adv-x="426" d="M146 -44L24 465Q19 492 19 497Q19 523 36 538T84 554Q139 554 147 507L218 130H220L280 487Q286 520 300 537T346 554Q373 554 390 540T407 500Q407 489 400 461L273 -74Q254 -155 225 -181T120 -207Q63
-207 63 -154Q63 -133 73 -122T111 -108Q125 -107 131 -106T143 -97T150 -74T146 -44Z" />
<glyph unicode="z" glyph-name="z" horiz-adv-x="426" d="M89 541H334Q397 541 397 499Q397 475 375 436L182 106H339Q400 106 400 54Q400 0 339 0H85Q26 0 26 51Q26 75 43 105L236 435H89Q28 435 28 487Q28 541 89 541Z" />
<glyph unicode="{" glyph-name="braceleft" horiz-adv-x="314" d="M87 -46V162Q87 203 76 216T45 229T15 243T4 277T14 310T45 325Q58 325 66 328T80 347T87 392V600Q87 733 205 733H270Q310 733 310 685T270 637H248Q209 637 209 578V381Q209 348 200 327T172
296T143 283T114 278V276Q131 274 142 271T172 259T199 228T209 173V-24Q209 -83 248 -83H270Q310 -83 310 -131T270 -179H205Q87 -179 87 -46Z" />
<glyph unicode="|" glyph-name="bar" horiz-adv-x="222" d="M54 56V664Q54 700 69 718T111 737T152 719T168 664V56Q168 20 153 2T111 -17T70 1T54 56Z" />
<glyph unicode="}" glyph-name="braceright" horiz-adv-x="314" d="M227 600V392Q227 351 238 338T269 325T299 311T310 277T300 244T269 229Q256 229 248 226T234 207T227 162V-46Q227 -179 109 -179H44Q4 -179 4 -131T44 -83H66Q105 -83 105 -24V173Q105 206
114 227T142 258T171 271T200 276V278Q183 280 172 283T142 295T115 326T105 381V578Q105 637 66 637H44Q4 637 4 685T44 733H109Q227 733 227 600Z" />
<glyph unicode="~" glyph-name="asciitilde" horiz-adv-x="600" d="M41 253Q41 295 80 329T182 363Q233 363 306 336Q381 309 405 309Q434 309 465 332T516 356Q559 356 559 313T519 237T412 203Q372 203 293 230T195 257Q166 257 135 233T84 209Q41 209 41 253Z" />
</font>
</defs>
</svg>
